<?xml version="1.0" encoding="UTF-8" standalone="no" ?>
<!DOCTYPE svg PUBLIC "-//W3C//DTD SVG 1.1//EN" "http://www.w3.org/Graphics/SVG/1.1/DTD/svg11.dtd">
<svg xmlns="http://www.w3.org/2000/svg" xmlns:xlink="http://www.w3.org/1999/xlink" version="1.1" width="1080" height="1080" viewBox="0.79 -0.6 1080 1080" xml:space="preserve">
<desc>Created with Fabric.js 5.2.4</desc>
<defs>
</defs>
<rect x="0" y="0" width="100%" height="100%" fill="transparent"></rect>
<g transform="matrix(1 0 0 1 540 540)" id="7f60c087-9599-4b82-97b4-c1a873638f9b"  >
<rect style="stroke: none; stroke-width: 1; stroke-dasharray: none; stroke-linecap: butt; stroke-dashoffset: 0; stroke-linejoin: miter; stroke-miterlimit: 4; fill: rgb(255,255,255); fill-rule: nonzero; opacity: 1; visibility: hidden;" vector-effect="non-scaling-stroke"  x="-540" y="-540" rx="0" ry="0" width="1080" height="1080" />
</g>
<g transform="matrix(1 0 0 1 540 540)" id="c1922d3d-6c82-45d7-94c5-be52c8e0081d"  >
</g>
<g transform="matrix(1.02 -0.7 0.71 1.03 603.36 409.55)"  >
<path style="stroke: none; stroke-width: 1; stroke-dasharray: none; stroke-linecap: butt; stroke-dashoffset: 0; stroke-linejoin: miter; stroke-miterlimit: 4; fill: rgb(123,15,156); fill-rule: nonzero; opacity: 1;" vector-effect="non-scaling-stroke"  transform=" translate(-745.61, -476.53)" d="M 691.93 496.703 C 682.89 496.703 675.309 489.62199999999996 674.799 480.47999999999996 C 674.268 471.001 681.523 462.9 690.991 462.36899999999997 L 798.318 456.39 C 807.725 455.727 815.898 463.104 816.429 472.582 C 816.9599999999999 482.061 809.7049999999999 490.162 800.237 490.693 L 692.91 496.67199999999997 C 692.583 496.693 692.257 496.703 691.93 496.703 z" stroke-linecap="round" />
</g>
<g transform="matrix(1.02 -0.7 0.71 1.03 626.99 535.92)"  >
<path style="stroke: none; stroke-width: 1; stroke-dasharray: none; stroke-linecap: butt; stroke-dashoffset: 0; stroke-linejoin: miter; stroke-miterlimit: 4; fill: rgb(174,26,232); fill-rule: nonzero; opacity: 1;" vector-effect="non-scaling-stroke"  transform=" translate(-704.66, -570.05)" d="M 626.661 590.491 C 617.4989999999999 590.491 609.8969999999999 583.257 609.51 574.023 C 609.112 564.544 616.479 556.5450000000001 625.957 556.147 L 781.943 549.6270000000001 C 791.146 549.1980000000001 799.4209999999999 556.5960000000001 799.819 566.0740000000001 C 800.217 575.5530000000001 792.8499999999999 583.552 783.372 583.95 L 627.386 590.47 C 627.14 590.48 626.906 590.491 626.661 590.491 z" stroke-linecap="round" />
</g>
<g transform="matrix(1.01 -0.69 0.71 1.03 648.73 660.96)"  >
<path style="stroke: none; stroke-width: 1; stroke-dasharray: none; stroke-linecap: butt; stroke-dashoffset: 0; stroke-linejoin: miter; stroke-miterlimit: 4; fill: rgb(123,15,156); fill-rule: nonzero; opacity: 1;" vector-effect="non-scaling-stroke"  transform=" translate(-664.02, -661.83)" d="M 561.391 684.288 C 552.3 684.288 544.7189999999999 677.166 544.25 667.9830000000001 C 543.76 658.514 551.045 650.4340000000001 560.524 649.9540000000001 L 765.77 639.4140000000001 C 775.106 638.7610000000001 783.309 646.2090000000001 783.799 655.6880000000001 C 784.289 665.1570000000002 777.004 673.2370000000001 767.525 673.7170000000001 L 562.279 684.2570000000001 C 561.983 684.278 561.687 684.288 561.391 684.288 z" stroke-linecap="round" />
</g>
<g transform="matrix(0.99 -0.68 0.71 1.03 719.07 749.1)"  >
<path style="stroke: none; stroke-width: 1; stroke-dasharray: none; stroke-linecap: butt; stroke-dashoffset: 0; stroke-linejoin: miter; stroke-miterlimit: 4; fill: rgb(174,26,232); fill-rule: nonzero; opacity: 1;" vector-effect="non-scaling-stroke"  transform=" translate(-671.65, -751.35)" d="M 592.776 772.831 C 583.716 772.831 576.135 765.74 575.635 756.588 C 575.115 747.1089999999999 582.379 739.0079999999999 591.848 738.4979999999999 L 749.568 729.9069999999999 C 759.547 729.3559999999999 767.138 736.651 767.658 746.1199999999999 C 768.178 755.5989999999999 760.914 763.6999999999999 751.445 764.2099999999999 L 593.725 772.8009999999999 C 593.399 772.821 593.082 772.831 592.776 772.831 z" stroke-linecap="round" />
</g>
<g transform="matrix(0.97 -0.67 0.71 1.03 799.71 833.3)"  >
<path style="stroke: none; stroke-width: 1; stroke-dasharray: none; stroke-linecap: butt; stroke-dashoffset: 0; stroke-linejoin: miter; stroke-miterlimit: 4; fill: rgb(123,15,156); fill-rule: nonzero; opacity: 1;" vector-effect="non-scaling-stroke"  transform=" translate(-685.95, -842.94)" d="M 638.078 862.333 C 628.946 862.333 621.355 855.15 620.927 845.937 C 620.488 836.468 627.8240000000001 828.428 637.303 827.99 L 733.019 823.582 C 742.457 823.062 750.517 830.479 750.966 839.958 C 751.405 849.427 744.069 857.467 734.59 857.905 L 638.874 862.313 C 638.609 862.323 638.343 862.333 638.078 862.333 z" stroke-linecap="round" />
</g>
<g transform="matrix(0 0 0 0 390.24 383.18)"  >
<g style=""   >
</g>
</g>
<g transform="matrix(0 0 0 0 390.24 383.18)"  >
<g style=""   >
</g>
</g>
<g transform="matrix(0 0 0 0 390.24 383.18)"  >
<g style=""   >
</g>
</g>
<g transform="matrix(0 0 0 0 390.24 383.18)"  >
<g style=""   >
</g>
</g>
<g transform="matrix(0 0 0 0 390.24 383.18)"  >
<g style=""   >
</g>
</g>
<g transform="matrix(0 0 0 0 390.24 383.18)"  >
<g style=""   >
</g>
</g>
<g transform="matrix(1.03 -0.71 0.71 1.03 549.22 450.08)"  >
<path style="stroke: none; stroke-width: 1; stroke-dasharray: none; stroke-linecap: butt; stroke-dashoffset: 0; stroke-linejoin: miter; stroke-miterlimit: 4; fill: rgb(174,26,232); fill-rule: nonzero; opacity: 1;" vector-effect="non-scaling-stroke"  transform=" translate(-690.96, -478.84)" d="M 546.587 703.46 C 543.2 703.46 539.771 702.46 536.782 700.379 C 528.9970000000001 694.961 527.0790000000001 684.258 532.4970000000001 676.463 L 821.2250000000001 261.573 C 826.6530000000001 253.78799999999998 837.3660000000001 251.87999999999997 845.1410000000002 257.28799999999995 C 852.9260000000002 262.70599999999996 854.8440000000002 273.40899999999993 849.4260000000002 281.20399999999995 L 560.6980000000001 696.0939999999999 C 557.361 700.889 552.015 703.46 546.587 703.46 z" stroke-linecap="round" />
</g>
<g transform="matrix(1.03 -0.71 0.71 1.03 478.05 716.04)"  >
<path style="stroke: none; stroke-width: 1; stroke-dasharray: none; stroke-linecap: butt; stroke-dashoffset: 0; stroke-linejoin: miter; stroke-miterlimit: 4; fill: rgb(174,26,232); fill-rule: nonzero; opacity: 1;" vector-effect="non-scaling-stroke"  transform=" translate(-524.42, -621.21)" d="M 710.571 988.199 C 704.5 988.199 698.7860000000001 984.9749999999999 695.6850000000001 979.588 L 535.73 701.837 L 210.597 645.69 C 203.455 644.455 197.863 638.8850000000001 196.598 631.763 C 195.33300000000003 624.6310000000001 198.679 617.479 204.954 613.8670000000001 L 826.7639999999999 256.4920000000001 C 832.5589999999999 253.18600000000006 839.7529999999999 253.49200000000008 845.2009999999999 257.33900000000006 C 850.67 261.17500000000007 853.4039999999999 267.82800000000003 852.2309999999999 274.40900000000005 L 727.478 974.037 C 726.213 981.138 720.6419999999999 986.6990000000001 713.53 987.9340000000001 C 712.541 988.107 711.551 988.199 710.571 988.199 z M 263.348 619.937 L 549.515 669.351 C 554.555 670.218 558.932 673.279 561.483 677.707 L 701.94 921.593 L 811.95 304.64 L 263.348 619.937 z" stroke-linecap="round" />
</g>
<g transform="matrix(0 0 0 0 390.24 383.18)"  >
<g style=""   >
</g>
</g>
<g transform="matrix(0 0 0 0 390.24 383.18)"  >
<g style=""   >
</g>
</g>
<g transform="matrix(0 0 0 0 390.24 383.18)"  >
<g style=""   >
</g>
</g>
<g transform="matrix(0 0 NaN NaN 0 0)"  >
<g style=""   >
</g>
</g>
<g transform="matrix(0 0 NaN NaN 0 0)"  >
<g style=""   >
</g>
</g>
<g transform="matrix(0 0 NaN NaN 0 0)"  >
<g style=""   >
</g>
</g>
<g transform="matrix(0 0 NaN NaN 0 0)"  >
<g style=""   >
</g>
</g>
</svg>